<?xml version="1.0" encoding="iso-8859-1"?>
<!-- Generator: Adobe Illustrator 21.1.0, SVG Export Plug-In . SVG Version: 6.00 Build 0)  -->
<svg version="1.1" id="Calque_1" xmlns="http://www.w3.org/2000/svg" xmlns:xlink="http://www.w3.org/1999/xlink" x="0px" y="0px"
	 width="432px" height="432px" viewBox="0 0 432 432" enable-background="new 0 0 432 432" xml:space="preserve">
<g>
	<path fill="#A34E4C" d="M106.725,256.498c1.917-0.324,3.739-0.631,5.635-0.951c0.334,0.925,0.285,1.903,0.398,2.914
		c-2.102,0.892-4.36,0.703-6.562,1.19c-0.002,0.254-0.005,0.493-0.007,0.729c2.202-0.287,4.339-0.565,6.501-0.846
		c0.42,0.92,0.382,1.774,0.376,2.726c-2.272,0.339-4.509,0.673-6.777,1.012c-0.005,0.295-0.008,0.509-0.012,0.76
		c2.299-0.365,4.528-0.72,6.927-1.101c0.096,1.058,0.177,1.946,0.27,2.974c-2.384,0.524-4.725,0.85-7.162,1.004
		c-0.007,0.413-0.013,0.779-0.021,1.289c2.42-0.345,4.763-0.679,7.157-1.02c0.296,1.091,0.294,2.097,0.334,3.191
		c-2.408,0.67-4.864,0.813-7.391,1.087c-0.021,0.391-0.041,0.752-0.069,1.268c2.545-0.278,4.933-1.148,7.6-1.013
		c0.1,1.024,0.2,2.058,0.314,3.229c-2.609,0.372-5.113,0.73-7.691,1.098c-0.027,0.272-0.058,0.585-0.104,1.054
		c2.628-0.44,5.119-1.109,7.862-1.114c0.089,1.102,0.176,2.174,0.276,3.403c-2.697,0.365-5.311,0.718-8.009,1.083
		c-0.021,0.209-0.07,0.498-0.072,0.787c-0.002,0.298,0.042,0.595,0.073,0.979c2.709-0.209,5.339-0.843,8.167-0.753
		c0.098,1.133,0.191,2.206,0.298,3.442c-2.863,0.269-5.606,0.526-8.45,0.793c-0.013,0.436-0.024,0.838-0.04,1.382
		c2.864,0.116,5.625-0.559,8.401-0.369c0.321,0.803,0.458,2.288,0.324,3.684c-2.839,0.166-5.689,0.437-8.684,0.126
		c0.016,0.703,0.029,1.282,0.043,1.932c2.992,0.016,5.864,0.032,8.894,0.049c0.08,1.114,0.151,2.115,0.232,3.249
		c-3.079-0.126-6.054-0.248-9.159-0.375c0.005,0.828,0.01,1.526,0.015,2.263c3.064-0.39,6.021-0.766,9.151-1.164
		c0.083,1.2,0.155,2.238,0.235,3.399c-1.532,0.401-3.079,0.424-4.603,0.59c-1.545,0.167-3.092,0.316-4.769,0.486
		c-0.021,0.782-0.041,1.555-0.066,2.502c1.672-0.319,3.21-0.68,4.769-0.891c1.533-0.208,3.086-0.263,4.765-0.395
		c0.091,1.129,0.172,2.133,0.258,3.206c-1.587,0.586-3.226,0.546-4.828,0.723c-1.581,0.175-3.165,0.32-4.892,0.493
		c0.003,0.894,0.005,1.781,0.008,2.795c3.305-0.369,6.52-0.729,9.874-1.104c0.063,1.175,0.119,2.221,0.182,3.387
		c-3.31,0.578-6.575,0.832-9.938,0.899c-0.01,0.332-0.018,0.61-0.027,0.894c3.325-0.222,6.57-0.438,9.963-0.664
		c0.036,0.632,0.075,1.147,0.091,1.663c0.015,0.528,0.007,1.057,0.009,1.677c-3.299,0.689-6.594,0.564-9.941,0.635
		c-0.274,0.846-0.209,1.692-0.084,2.608c3.334-0.312,6.635-0.622,10.087-0.945c0.012,1.257,0.023,2.333,0.034,3.455
		c-3.416,0.584-6.734,0.789-10.139,0.895c0,0.467,0.001,0.83,0.001,1.329c3.393-0.244,6.71-0.353,10.15-0.156
		c0.01,1.06,0.018,2.031,0.028,3.125c-3.397,0.237-6.72,0.077-10.15,0.234c-0.001,0.909-0.002,1.762-0.003,2.714
		c3.401-0.364,6.694-0.716,10.152-1.087c-0.008,1.176-0.015,2.173-0.023,3.304c-3.395,0.343-6.667,0.673-10.065,1.017
		c0.003,0.471,0.007,0.947,0.011,1.554c3.307-0.384,6.557-0.761,9.931-1.152c0.22,1.161,0.078,2.192,0.101,3.244
		c-3.268,0.919-6.525,1.019-9.936,1.09c-0.009,0.516-0.018,1.018-0.03,1.668c3.349-0.196,6.59-0.385,9.965-0.582
		c0.021,1.042,0.04,1.975,0.058,2.878c-1.717,0.276-3.345,0.605-4.99,0.782c-1.607,0.174-3.231,0.193-4.942,0.285
		c0.015,0.538,0.03,1.054,0.046,1.621c3.311-0.081,6.549-0.161,9.884-0.242c0.032,1.046,0.06,1.947,0.09,2.924
		c-1.071,0.412-2.182,0.235-3.251,0.361c-1.093,0.129-2.19,0.23-3.288,0.299c-1.087,0.069-2.178,0.083-3.359,0.125
		c0.037,0.507,0.067,0.906,0.101,1.377c3.27-0.189,6.47-0.373,9.803-0.565c0.018,0.989,0.035,1.916,0.052,2.869
		c-3.232,0.797-6.415,0.861-9.766,0.888c0.019,0.796,0.036,1.525,0.056,2.364c3.277-0.11,6.446-0.216,9.747-0.327
		c0.023,0.939,0.043,1.793,0.067,2.784c-3.253,0.312-6.427,0.702-9.592,0.66c-0.17,0.528-0.037,0.694,0.375,0.709
		c1.214,0.046,2.427,0.107,3.64,0.177c1.555,0.089,3.109,0.19,4.663,0.29c0.26,0.017,0.519,0.05,0.922,0.09
		c0.025,0.938,0.048,1.825,0.074,2.833c-3.254,0.065-6.385,0.008-9.655-0.34c0.02,0.527,0.036,0.956,0.052,1.386
		c3.198-0.06,6.326-0.118,9.473-0.177c0.355,0.868,0.224,1.696,0.218,2.587c-0.247,0.078-0.484,0.204-0.729,0.222
		c-2.647,0.197-5.281,0.614-7.951,0.443c-0.824-0.053-0.842,0.008-0.865,1.01c3.184,0.184,6.4-0.128,9.676,0.338
		c0.039,0.916,0.076,1.771,0.118,2.76c-3.46,0.158-6.81,0.367-10.189,0.06c-0.189,0.266-0.345,0.522-0.536,0.748
		c-1.076,1.272-3.016,1.152-3.872-0.285c-0.303-0.509-0.518-1.115-0.602-1.702c-0.489-3.418-1.038-6.834-1.354-10.27
		c-0.414-4.496-0.648-9.009-0.928-13.517c-0.291-4.699-0.566-9.399-0.807-14.1c-0.258-5.042-0.503-10.086-0.69-15.131
		c-0.214-5.767-0.413-11.535-0.517-17.305c-0.086-4.783-0.027-9.57-0.025-14.354c0.002-2.963-0.038-5.927,0.041-8.888
		c0.15-5.657,0.13-11.327,0.898-16.949c0.174-1.272,0.493-2.534,0.853-3.769c0.524-1.802,1.883-2.694,3.653-3.018
		c0.358-0.066,0.809-0.089,1.106,0.072c0.632,0.345,1.224,0.24,1.862,0.113c1.34-0.266,2.684-0.518,4.033-0.734
		c1.306-0.208,1.468-0.067,1.616,1.19c0.192,1.636,0.187,1.648-1.489,1.969c-1.006,0.193-2.019,0.351-3.021,0.564
		C107.097,255.319,106.654,255.595,106.725,256.498z"/>
	<g>
		<path fill="#B27C62" d="M238.423,173.895c-0.048-1.013-0.132-1.842-0.119-2.668c0.053-3.19,0.016-6.388,0.241-9.567
			c0.298-4.203,0.752-8.397,1.244-12.583c0.659-5.602,2.099-11.034,3.823-16.393c0.395-1.229,0.8-2.455,1.212-3.678
			c0.121-0.358,0.261-0.714,0.432-1.051c0.657-1.295,1.22-1.466,2.66-1.313c2.904,0.31,5.819,0.537,8.734,0.726
			c2.652,0.172,5.309,0.321,7.965,0.344c2.543,0.022,5.089-0.088,7.629-0.221c3.185-0.167,6.364-0.424,9.547-0.628
			c1.781-0.114,3.564-0.199,5.346-0.298c0.114-0.006,0.227-0.023,0.341-0.03c2.758-0.155,4.181,0.756,5.134,3.355
			c0.945,2.578,1.473,5.264,1.893,7.965c1.361,8.751,2.275,17.555,2.717,26.398c0.469,9.375,0.662,18.759,0.308,28.146
			c-0.163,4.328-0.253,8.661-0.527,12.982c-0.331,5.23-0.857,10.447-2.008,15.575c-0.14,0.626-0.359,1.241-0.599,1.837
			c-0.974,2.425-2.721,4.005-5.277,4.587c-1.254,0.286-2.539,0.478-3.82,0.597c-5.669,0.527-11.333,1.176-17.044,1.024
			c-3.686-0.098-7.364-0.271-10.964-1.165c-0.662-0.164-1.313-0.378-1.957-0.606c-2.736-0.968-4.806-2.71-6.119-5.319
			c-2.877-5.719-5.276-11.619-6.59-17.906c-0.234-1.117-0.706-1.65-1.8-1.968c-3.548-1.031-7.162-1.716-10.813-2.203
			c-5.163-0.688-10.357-1.018-15.565-0.994c-6.768,0.031-13.507,0.52-20.18,1.668c-2.426,0.417-4.813,1.074-7.208,1.663
			c-1.218,0.3-2.413,0.656-3.69,0.623c-1.959-0.052-3.251-0.961-3.716-2.887c-0.383-1.583-0.706-3.199-0.844-4.819
			c-0.393-4.616-0.68-9.242-1-13.865c-0.029-0.416,0.013-0.836,0.005-1.253c-0.032-1.521,0.648-2.549,1.835-3.555
			c3.516-2.979,7.68-4.383,12.038-5.405c5.345-1.253,10.769-1.966,16.257-1.865c8.915,0.164,17.717,1.262,26.333,3.645
			C235.589,173.154,236.905,173.491,238.423,173.895z"/>
		<g>
			<path fill="#BEC1A4" d="M286.95,76.784c3.42,0.149,6.685,0.21,9.935,0.467c1.672,0.132,3.356,0.479,4.964,0.963
				c3.902,1.175,6.088,4.227,6.14,8.294c0.046,3.591-0.654,7.063-1.846,10.417c-1.509,4.247-3.156,8.445-4.767,12.655
				c-2.057,5.377-4.257,10.703-6.165,16.132c-1.203,3.425-3.408,5.396-6.918,5.903c-2.346,0.339-4.714,0.645-7.079,0.713
				c-5.194,0.15-10.395,0.26-15.589,0.156c-3.979-0.079-7.951-0.505-11.926-0.789c-0.923-0.066-1.842-0.189-2.763-0.281
				c-2.387-0.238-4.208-1.4-5.31-3.509c-1.267-2.425-2.482-4.883-3.579-7.389c-2.541-5.805-4.225-11.908-6.067-17.954
				c-0.927-3.042-1.839-6.089-2.749-9.137c-0.173-0.578-0.317-1.165-0.452-1.753c-0.632-2.757,0.177-4.96,2.586-6.441
				c1.29-0.793,2.713-1.425,4.149-1.919c5.194-1.786,10.537-2.955,15.984-3.66c3.872-0.501,7.731-1.105,11.61-1.543
				c3.439-0.389,6.892-0.666,10.345-0.895C280.667,77.002,283.889,76.918,286.95,76.784z"/>
			<path fill="#BEC1A4" d="M139.337,197.822c-0.081-0.743-0.169-1.485-0.243-2.229c-0.329-3.273,0.804-5.742,3.617-7.645
				c8.876-6.002,18.534-10.318,28.654-13.686c2.339-0.778,4.68-1.555,7.045-2.247c1.558-0.456,3.157-0.772,4.744-1.125
				c0.988-0.22,1.993-0.363,2.978-0.592c2.533-0.59,4.637,0.479,5.373,2.981c0.706,2.404,1.26,4.86,1.762,7.317
				c1.015,4.962,1.952,9.94,2.913,14.914c0.083,0.431,0.106,0.874,0.155,1.311c0.227,2.018-0.671,3.504-2.263,4.612
				c-1.643,1.144-3.476,1.887-5.403,2.416c-2.544,0.698-5.109,1.332-7.615,2.147c-9.975,3.246-19.402,7.694-28.397,13.078
				c-1.021,0.611-2.057,1.197-3.106,1.759c-0.542,0.29-1.109,0.554-1.694,0.736c-2.178,0.676-3.915-0.183-4.559-2.363
				c-0.997-3.375-2.015-6.746-2.477-10.258c-0.425-3.232-0.963-6.449-1.444-9.673c-0.071-0.477-0.105-0.96-0.156-1.44
				C139.259,197.83,139.298,197.826,139.337,197.822z"/>
		</g>
	</g>
	<g>
		<path fill="#58554E" d="M133.339,123.014c0.116-2.885,0.222-5.77,0.351-8.654c0.219-4.895,0.452-9.79,0.68-14.684
			c0.304-6.526,0.629-13.051,0.903-19.578c0.134-3.188,0.168-6.38,0.256-9.57c0.013-0.453,0.046-0.91,0.123-1.356
			c0.229-1.316,1.004-2.154,2.26-2.616c2.044-0.751,4.149-1.222,6.307-1.457c2.571-0.281,5.152-0.438,7.733-0.218
			c1.279,0.109,2.552,0.35,3.809,0.619c0.992,0.213,1.74,0.846,2.432,1.598c0.993,1.079,1.892,2.18,2.086,3.695
			c0.102,0.791,0.221,1.581,0.281,2.375c0.393,5.2,0.308,10.405,0.039,15.605c-0.242,4.666-0.601,9.325-0.86,13.99
			c-0.186,3.337-0.377,6.678-0.417,10.019c-0.09,7.485-0.041,14.971-0.14,22.456c-0.061,4.595-0.266,9.189-0.461,13.781
			c-0.05,1.17-0.251,2.343-0.483,3.494c-0.364,1.807-1.442,2.916-3.299,3.336c-4.984,1.128-9.996,1.343-15.048,0.608
			c-0.597-0.087-1.186-0.266-1.76-0.457c-2.051-0.682-3.375-2.066-3.689-4.222c-0.378-2.589-0.824-5.191-0.898-7.796
			c-0.188-6.568-0.184-13.142-0.256-19.713c-0.005-0.418-0.001-0.835-0.001-1.253C133.304,123.014,133.321,123.014,133.339,123.014z
			"/>
		<path fill="#B3AEA8" d="M150.847,75.034c-2.352-0.069-4.704-0.199-7.056-0.189c-1.779,0.007-3.557,0.19-5.335,0.299
			c-0.606,0.037-1.211,0.081-1.816,0.127c-1.846,0.14-3.116-1.229-3.376-2.617c-0.222-1.188-0.351-2.404-0.401-3.612
			c-0.165-3.988-0.108-7.971,0.591-11.917c0.105-0.594,0.265-1.185,0.468-1.753c0.435-1.218,1.293-2.021,2.515-2.456
			c1.452-0.518,2.964-0.591,4.48-0.687c2.384-0.151,4.763-0.36,7.147-0.511c3.331-0.21,6.661-0.457,9.996-0.558
			c2.63-0.08,4.354,1.111,5.19,3.605c0.489,1.459,0.759,3.015,0.942,4.55c0.397,3.332,0.088,6.673-0.047,10.01
			c-0.031,0.758-0.059,1.519-0.139,2.273c-0.174,1.662-1.189,2.812-2.812,3.163c-0.589,0.127-1.202,0.192-1.805,0.196
			c-2.847,0.02-5.695,0.009-8.542,0.009C150.848,74.988,150.847,75.011,150.847,75.034z"/>
	</g>
	<g>
		<path fill="#58554E" d="M330.102,193.808c0.787-1.028,1.216-2.076,1.482-3.182c0.618-2.566,0.677-5.191,0.741-7.81
			c0.09-3.725-0.085-7.441-0.448-11.15c-0.178-1.814-0.379-3.632-0.41-5.451c-0.023-1.395,0.141-2.804,0.337-4.19
			c0.21-1.488,1.075-2.564,2.419-3.251c0.466-0.238,0.919-0.502,1.476-0.808c-0.296-0.417-0.526-0.753-0.769-1.08
			c-1.409-1.894-1.322-3.709,0.297-5.458c0.515-0.557,1.079-1.07,1.639-1.583c0.249-0.228,0.544-0.408,0.919-0.683
			c-0.451-0.486-0.739-0.82-1.052-1.129c-0.948-0.932-1.395-2.031-1.317-3.382c0.21-3.639,0.365-7.281,0.57-10.921
			c0.039-0.683-0.085-1.2-0.592-1.725c-0.456-0.473-0.81-1.119-1.011-1.751c-0.66-2.078,2.272-4.768,4.339-4.013
			c0.445,0.163,0.908,0.45,1.205,0.809c0.788,0.955,1.057,2.115,0.825,3.316c-0.092,0.478-0.425,0.998-0.803,1.309
			c-0.427,0.351-0.625,0.676-0.637,1.223c-0.05,2.278-0.162,4.555-0.207,6.833c-0.039,1.968-0.037,3.938-0.008,5.907
			c0.005,0.342,0.194,0.704,0.371,1.015c0.28,0.492,0.67,0.925,0.928,1.427c0.499,0.972,0.409,1.926-0.332,2.749
			c-0.711,0.79-1.473,1.535-2.206,2.305c-0.859,0.902-0.875,1.236-0.165,2.274c0.278,0.407,0.566,0.814,0.782,1.254
			c0.649,1.324,0.492,2.376-0.562,3.423c-0.452,0.449-0.989,0.835-1.542,1.155c-0.773,0.448-1.044,0.992-1.023,1.937
			c0.151,6.758,0.551,13.517,0.216,20.279c-0.114,2.31-0.333,4.62-0.623,6.914c-0.206,1.631-0.864,3.145-1.687,4.569
			c-0.245,0.424-0.534,0.839-0.873,1.189c-1.357,1.398-3.143,1.425-4.556,0.093c-0.819-0.772-1.332-1.742-1.748-2.773
			c-0.925-2.293-1.191-4.714-1.25-7.146c-0.094-3.874-0.058-7.75-0.098-11.625c-0.029-2.735-0.086-5.47-0.146-8.205
			c-0.028-1.28-0.396-2.462-1.088-3.548c-1.09-1.712-1.222-3.474-0.216-5.276c0.259-0.464,0.529-0.923,0.801-1.379
			c0.74-1.244,0.716-1.705-0.163-2.891c-0.339-0.458-0.697-0.903-1.015-1.374c-0.993-1.474-1.241-2.961-0.222-4.57
			c0.503-0.795,0.843-1.699,1.203-2.577c0.138-0.338,0.179-0.739,0.172-1.11c-0.068-3.494-0.142-6.988-0.261-10.48
			c-0.012-0.365-0.278-0.759-0.514-1.073c-0.663-0.878-1.064-1.834-1.057-2.943c0.012-1.915,1.433-3.472,3.193-3.501
			c1.653-0.027,3.303,1.615,3.391,3.39c0.056,1.134-0.278,2.117-1.267,2.757c-0.427,0.277-0.642,0.572-0.626,1.1
			c0.08,2.543,0.154,5.087,0.182,7.631c0.018,1.554-0.021,3.109-0.089,4.662c-0.054,1.214-0.552,2.264-1.327,3.205
			c-0.754,0.915-0.74,1.373,0.013,2.299c0.31,0.381,0.686,0.708,1.032,1.059c0.319,0.324,0.671,0.623,0.953,0.977
			c1.03,1.292,1.19,2.686,0.348,4.13c-0.304,0.521-0.704,0.986-1.075,1.466c-0.348,0.451-0.748,0.864-1.067,1.334
			c-0.565,0.832-0.472,1.603,0.355,2.172c0.751,0.516,1.181,1.15,1.26,2.047c0.184,2.114,0.484,4.225,0.542,6.342
			c0.142,5.203,0.137,10.41,0.27,15.613c0.043,1.699,0.271,3.402,0.528,5.085C328.986,191.983,329.358,192.914,330.102,193.808z"/>
		<path fill="#58554E" d="M356.867,123.586c-0.321,0.677-0.438,1.322-0.455,1.98c-0.04,1.527,0.243,3.02,0.523,4.51
			c0.398,2.119,0.946,4.201,1.599,6.257c0.319,1.005,0.653,2.01,0.889,3.036c0.182,0.787,0.259,1.604,0.315,2.412
			c0.06,0.867-0.299,1.581-0.977,2.132c-0.235,0.191-0.46,0.395-0.738,0.635c0.218,0.2,0.389,0.363,0.565,0.519
			c1.026,0.902,1.195,1.94,0.49,3.125c-0.224,0.377-0.482,0.736-0.737,1.094c-0.114,0.159-0.259,0.296-0.438,0.498
			c0.314,0.221,0.517,0.375,0.732,0.512c0.649,0.413,1.035,0.981,1.154,1.755c0.32,2.085,0.672,4.165,0.994,6.25
			c0.06,0.391,0.193,0.669,0.543,0.905c0.315,0.213,0.594,0.535,0.784,0.869c0.624,1.097-0.711,2.973-1.972,2.795
			c-0.271-0.038-0.568-0.145-0.78-0.313c-0.561-0.445-0.853-1.07-0.867-1.777c-0.005-0.282,0.12-0.616,0.297-0.838
			c0.199-0.25,0.272-0.458,0.213-0.769c-0.247-1.295-0.458-2.598-0.707-3.893c-0.215-1.119-0.454-2.233-0.708-3.344
			c-0.044-0.193-0.195-0.375-0.332-0.53c-0.218-0.245-0.491-0.443-0.697-0.696c-0.4-0.49-0.464-1.041-0.144-1.596
			c0.307-0.533,0.648-1.046,0.971-1.571c0.378-0.614,0.346-0.805-0.181-1.307c-0.206-0.197-0.419-0.392-0.594-0.615
			c-0.527-0.671-0.565-1.285-0.095-2.005c0.202-0.309,0.459-0.592,0.733-0.84c0.383-0.347,0.471-0.687,0.345-1.219
			c-0.901-3.807-1.943-7.584-2.569-11.451c-0.214-1.321-0.369-2.655-0.482-3.989c-0.08-0.948,0.11-1.884,0.404-2.789
			c0.088-0.269,0.201-0.539,0.351-0.778c0.6-0.955,1.607-1.186,2.568-0.602c0.557,0.338,0.964,0.825,1.324,1.359
			c0.8,1.186,1.243,2.525,1.569,3.894c0.52,2.181,0.967,4.38,1.458,6.568c0.346,1.545,0.709,3.086,1.072,4.626
			c0.17,0.721,0.521,1.346,1.044,1.877c0.824,0.837,1.111,1.819,0.759,2.96c-0.091,0.294-0.188,0.586-0.287,0.877
			c-0.269,0.793-0.2,1.051,0.441,1.617c0.247,0.218,0.504,0.427,0.741,0.655c0.74,0.714,1.06,1.526,0.677,2.56
			c-0.189,0.511-0.272,1.064-0.37,1.603c-0.038,0.208-0.012,0.44,0.037,0.649c0.46,1.969,0.923,3.938,1.412,5.9
			c0.051,0.205,0.249,0.396,0.421,0.545c0.481,0.417,0.823,0.91,0.953,1.538c0.224,1.086-0.393,2.138-1.385,2.367
			c-0.932,0.215-2.064-0.516-2.328-1.51c-0.169-0.635-0.098-1.232,0.384-1.713c0.208-0.208,0.294-0.401,0.222-0.698
			c-0.352-1.43-0.701-2.861-1.024-4.297c-0.197-0.877-0.363-1.762-0.512-2.649c-0.116-0.694,0.039-1.348,0.365-1.974
			c0.316-0.609,0.253-0.866-0.285-1.3c-0.221-0.178-0.474-0.318-0.712-0.475c-0.22-0.145-0.455-0.272-0.657-0.438
			c-0.739-0.607-0.998-1.377-0.695-2.296c0.109-0.331,0.279-0.643,0.431-0.959c0.143-0.297,0.319-0.579,0.443-0.883
			c0.22-0.539,0.074-0.964-0.463-1.186c-0.487-0.201-0.807-0.508-0.96-1.006c-0.359-1.174-0.784-2.333-1.072-3.524
			c-0.708-2.928-1.333-5.875-2.036-8.804c-0.23-0.957-0.564-1.893-0.912-2.814C357.719,124.485,357.396,124.002,356.867,123.586z"/>
	</g>
	<g>
		<path fill="#58554E" d="M79.215,190.66c-3.982-0.163-7.968-0.263-11.945-0.51c-2.735-0.17-5.431-0.699-7.956-1.808
			c-1.208-0.53-2.387-1.185-3.46-1.95c-2.959-2.108-4.345-5.076-4.468-8.674c-0.068-1.987,0.338-3.924,0.564-5.882
			c0.392-3.407,1.471-6.577,2.951-9.638c0.496-1.025,0.967-2.062,1.477-3.08c3.422-6.825,5.774-14.028,7.503-21.441
			c1.189-5.098,2.279-10.219,3.412-15.33c0.025-0.111,0.035-0.225,0.06-0.337c0.976-4.45,3.574-6.618,8.131-6.84
			c2.711-0.132,5.272,0.308,7.707,1.579c1.861,0.971,3.178,2.386,3.744,4.367c0.55,1.927,1.018,3.898,1.28,5.881
			c0.551,4.175,0.876,8.381,1.424,12.557c0.443,3.384,1.018,6.754,1.643,10.11c0.504,2.706,1.618,5.21,2.884,7.644
			c1.209,2.323,2.402,4.655,3.622,6.973c1.72,3.267,3.284,6.594,4.025,10.242c0.496,2.439,0.726,4.895,0.018,7.33
			c-1.245,4.286-4.319,6.707-8.448,7.814c-1.847,0.495-3.815,0.646-5.738,0.726c-2.804,0.117-5.617,0.03-8.426,0.03
			C79.217,190.502,79.216,190.581,79.215,190.66z"/>
		<g>
			<path fill="#B3AEA8" d="M96.874,91.496c-0.108,4.058-0.068,8.08,1.953,11.758c1.344,2.445,3.345,4.334,5.623,5.879
				c1.373,0.931,2.92,1.606,4.392,2.392c0.502,0.268,1.041,0.477,1.509,0.793c0.863,0.583,1.116,1.391,0.834,2.393
				c-0.471,1.672-1.215,2.242-2.966,2.147c-0.67-0.036-1.367-0.143-1.989-0.38c-4.724-1.8-9.326-3.871-13.723-6.375
				c-0.922-0.525-1.79-1.146-2.671-1.74c-1.834-1.237-2.516-2.957-2.15-5.128c0.183-1.086,0.323-2.179,0.466-3.271
				c0.036-0.277,0.011-0.563-0.098-0.861c-1.624,2.935-2.682,6.045-3.349,9.204c0.775,0.494,1.471,0.873,2.093,1.348
				c0.98,0.748,1.515,1.79,1.693,3.002c0.383,2.61,0.329,5.23,0.07,7.843c-0.133,1.336-0.897,2.31-2.22,2.587
				c-1.478,0.31-2.995,0.582-4.497,0.593c-3.263,0.023-6.527-0.116-9.79-0.221c-1.404-0.045-2.807-0.159-4.209-0.265
				c-1.84-0.138-2.978-1.054-3.304-2.881c-0.258-1.451-0.353-2.937-0.425-4.412c-0.056-1.135,0.038-2.278,0.061-3.418
				c0.049-2.438,1.067-3.717,3.422-4.296c0.284-0.07,0.568-0.142,0.944-0.236c-0.475-1.596-0.973-3.1-1.727-4.501
				c-0.188-0.349-0.54-0.633-0.867-0.878c-2.026-1.519-4.325-2.336-6.832-2.608c-1.881-0.204-2.522-1.059-2.17-2.926
				c0.162-0.857,0.348-1.713,0.589-2.55c0.393-1.362,1.37-1.97,2.775-1.734c0.48,0.081,0.98,0.218,1.399,0.456
				c1.515,0.861,3.002,1.769,4.491,2.675c0.319,0.194,0.6,0.451,0.984,0.744c0.068-0.586-0.202-0.972-0.429-1.326
				c-1.127-1.757-2.303-3.483-3.428-5.242c-0.341-0.533-0.665-1.114-0.82-1.718c-0.123-0.48-0.031-1.04,0.064-1.546
				c0.118-0.631,0.385-1.234,0.501-1.865c0.23-1.247,0.928-2.093,2.124-2.436c1.2-0.344,2.423-0.64,3.656-0.832
				c6.637-1.034,13.277-2.054,19.924-3.023c2.214-0.323,4.451-0.506,6.682-0.7c1.545-0.134,2.744,0.511,3.491,1.879
				c0.288,0.528,0.53,1.104,0.665,1.688c0.434,1.885,0.852,3.776,1.191,5.68c0.298,1.669-0.308,2.745-1.864,3.487
				C98.292,90.985,97.605,91.209,96.874,91.496z"/>
			<path fill="#B3AEA8" d="M105.04,89.363c-1.784-0.182-2.458-0.699-2.893-2.436c-0.554-2.209-1.081-4.425-1.579-6.647
				c-0.397-1.774,0.19-2.646,1.977-3.037c0.964-0.211,1.928-0.429,2.9-0.597c2.274-0.393,3.597,0.487,4.083,2.706
				c0.398,1.817,0.778,3.638,1.149,5.461c0.549,2.7-0.265,4.008-2.938,4.211C106.837,89.092,105.94,89.247,105.04,89.363z"/>
		</g>
	</g>
	<g>
		<path fill="#A5998D" d="M349.008,256.961c0.131-0.38,0.267-0.759,0.392-1.14c2.951-8.979,5.833-17.98,8.874-26.928
			c1.93-5.677,4.087-11.277,6.162-16.905c0.328-0.889,0.736-1.751,1.156-2.601c0.198-0.401,0.461-0.797,0.782-1.105
			c0.638-0.612,1.603-0.68,2.323-0.245c0.7,0.423,0.998,1.158,0.787,2.069c-0.592,2.551-1.154,5.111-1.814,7.644
			c-1.625,6.244-3.191,12.507-4.981,18.705c-2.004,6.937-3.491,13.992-5.135,21.012c-1.246,5.321-2.4,10.664-3.624,15.991
			c-0.16,0.696-0.05,1.2,0.408,1.764c2.301,2.834,4.417,5.791,6.137,9.032c1.192,2.245,2.598,4.375,3.852,6.589
			c2.994,5.287,5.957,10.592,8.923,15.895c0.265,0.474,0.569,0.852,1.067,1.128c5.513,3.045,7.68,9.038,5.418,14.923
			c-1.174,3.055-3.132,5.45-6.01,7.043c-2.522,1.396-5.177,2.364-8.112,2.343c-2.87-0.02-5.374-1.023-7.414-3.005
			c-3.687-3.582-4.665-7.963-3.458-12.866c0.475-1.929,1.365-3.692,2.574-5.295c0.399-0.529,0.684-1.172,0.9-1.804
			c1.857-5.449,0.783-10.573-1.889-15.453c-0.945-1.725-2.089-3.352-3.25-4.945c-1.095-1.502-2.328-2.903-3.508-4.343
			c-0.237-0.289-0.505-0.552-0.841-0.916c-1.744,1.677-3.466,3.271-4.806,5.225c-1.258,1.835-2.116,3.853-2.729,5.985
			c-0.197,0.685-0.14,1.286,0.182,1.955c1.73,3.602,2.023,7.323,0.425,11.023c-1.894,4.388-5.455,6.669-10.105,7.043
			c-2.791,0.224-5.282-0.967-7.355-2.847c-3.577-3.244-4.673-8.115-2.903-12.602c0.748-1.896,1.771-3.624,3.268-5.021
			c2.456-2.293,5.355-3.399,8.74-3.11c0.377,0.032,0.753,0.06,1.216,0.097c0.271-0.379,0.595-0.75,0.828-1.172
			c1.526-2.757,3.058-5.51,4.534-8.294c0.871-1.643,1.629-3.345,2.461-5.009c0.267-0.535,0.352-0.974,0.069-1.59
			c-0.358-0.779-0.475-1.672-0.67-2.522c-1.947-8.454-3.043-17.044-4.131-25.638c-0.739-5.841-1.697-11.655-2.353-17.505
			c-0.567-5.055-0.889-10.14-1.228-15.217c-0.1-1.505,0.084-3.033,0.192-4.546c0.028-0.389,0.168-0.847,0.42-1.126
			c0.659-0.732,1.661-0.593,2.192,0.313c0.321,0.548,0.562,1.171,0.704,1.792c0.638,2.773,1.235,5.557,1.835,8.339
			c2.664,12.357,5.496,24.673,8.922,36.846c0.092,0.327,0.206,0.647,0.31,0.97C348.832,256.943,348.92,256.952,349.008,256.961z
			 M366.023,328.281c0.893-0.152,1.835-0.173,2.669-0.485c1.342-0.502,2.695-1.066,3.896-1.835c3.135-2.007,4.522-5.876,3.547-9.459
			c-0.681-2.506-2.303-4.33-4.306-5.843c-3.54-2.675-8.083-2.169-10.876,1.289c-2.487,3.08-3.324,6.599-2.253,10.471
			C359.664,325.909,362.562,328.169,366.023,328.281z M324.676,303.482c-0.229,3.492,2.926,6.818,5.829,7.324
			c3.525,0.615,7.666-1.932,8.865-5.33c1.212-3.437-1.19-8.531-4.664-9.819c-1.099-0.407-2.213-0.504-3.355-0.287
			C327.542,296.094,324.723,299.525,324.676,303.482z"/>
		<path fill="#697279" d="M348.836,261.764c1.989,0.008,3.658,1.639,3.659,3.576c0.001,1.956-2.031,3.968-3.966,3.93
			c-1.967-0.039-3.532-1.836-3.604-3.953C344.866,263.569,347.28,261.572,348.836,261.764z"/>
	</g>
	<g>
		<path fill="#B3AEA8" d="M174.051,241.724c0.382,0.05,0.768,0.16,1.146,0.137c0.604-0.036,1.2-0.184,1.803-0.242
			c0.893-0.086,1.527,0.235,1.816,0.871c0.296,0.651,0.091,1.252-0.651,1.88c-0.203,0.171-0.415,0.335-0.638,0.478
			c-0.731,0.469-0.845,1.1-0.511,1.97c0.449-0.099,0.88-0.21,1.318-0.287c0.409-0.072,0.824-0.142,1.238-0.152
			c0.719-0.017,1.24,0.35,1.536,0.986c0.28,0.603,0.153,1.188-0.228,1.72c-0.088,0.123-0.18,0.253-0.299,0.342
			c-0.854,0.642-0.98,1.477-0.652,2.493c0.35,0,0.716,0,1.082,0c0.868-0.001,1.59,0.309,1.947,1.128
			c0.357,0.819,0.114,1.561-0.513,2.18c-0.108,0.107-0.221,0.209-0.33,0.314c-1.105,1.07-1.195,1.591-0.505,3.198
			c0.455-0.036,0.947-0.142,1.424-0.094c0.548,0.055,1.158,0.124,1.607,0.403c0.98,0.609,1.081,1.918,0.27,2.768
			c-0.308,0.323-0.727,0.54-1.095,0.806c-0.32,0.231-0.639,0.463-0.958,0.694c0.024,0.076,0.048,0.151,0.072,0.227
			c0.323,0.047,0.646,0.129,0.97,0.135c0.993,0.019,1.804,0.363,2.211,1.31c0.395,0.92,0.069,1.702-0.619,2.366
			c-0.049,0.047-0.062,0.131-0.134,0.291c0.243,0.073,0.476,0.138,0.705,0.213c1.628,0.53,2.008,2.078,0.804,3.288
			c-0.321,0.323-0.699,0.596-0.98,0.95c-0.663,0.834-0.383,1.496,0.66,1.647c0.224,0.032,0.456,0.051,0.669,0.12
			c0.824,0.266,1.425,0.961,1.443,1.73c0.02,0.835-0.384,1.456-1.122,1.837c-0.301,0.156-0.636,0.245-0.952,0.373
			c-0.344,0.139-0.74,0.23-0.767,0.863c0.353,0.102,0.738,0.202,1.116,0.324c0.395,0.127,0.818,0.217,1.17,0.422
			c1.117,0.652,1.29,2.092,0.371,3.015c-0.263,0.264-0.628,0.424-0.915,0.669c-0.268,0.228-0.496,0.505-0.853,0.876
			c0.467,0.217,0.752,0.378,1.057,0.485c0.922,0.322,1.648,0.825,1.703,1.898c0.055,1.073-0.597,1.655-1.504,2.048
			c-0.281,0.121-0.531,0.313-0.993,0.592c0.584,0.241,0.926,0.369,1.257,0.521c1.608,0.74,1.777,2.516,0.341,3.545
			c-0.092,0.066-0.193,0.122-0.29,0.182c-0.31,0.192-0.835,0.312-0.666,0.768c0.106,0.284,0.536,0.476,0.855,0.643
			c0.333,0.174,0.728,0.229,1.061,0.403c1.373,0.717,1.487,2.355,0.23,3.254c-0.276,0.197-0.599,0.327-0.894,0.499
			c-0.632,0.368-1.015,0.891-1.024,1.738c0.458,0.223,0.937,0.438,1.4,0.684c0.802,0.427,1.287,1.07,1.204,2.017
			c-0.077,0.868-0.712,1.505-1.707,1.753c-0.431,0.107-0.872,0.176-1.479,0.296c0.257,0.279,0.396,0.477,0.579,0.617
			c0.331,0.253,0.719,0.437,1.029,0.71c1.232,1.083,0.911,2.8-0.637,3.358c-0.419,0.151-0.893,0.146-1.337,0.233
			c-0.166,0.032-0.321,0.121-0.747,0.288c0.626,0.288,1.02,0.469,1.415,0.651c1.73,0.798,1.658,2.774,0.263,3.509
			c-0.26,0.137-0.463,0.466-0.591,0.752c-0.513,1.152-1.373,1.601-2.57,1.2c-1.646-0.552-3.074-1.492-4.309-2.701
			c-0.753-0.737-0.732-1.681-0.581-2.663c0.444-2.889,0.865-5.783,1.258-8.679c0.478-3.518,0.344-7.056,0.215-10.586
			c-0.357-9.788-1.763-19.438-4.089-28.943c-1.59-6.496-3.548-12.887-6.402-18.964c-0.224-0.477-0.491-0.937-0.768-1.387
			c-0.567-0.923-0.522-1.586,0.205-2.363c1.43-1.529,3.27-2.453,5.08-3.419c0.191-0.102,0.439-0.121,0.664-0.134
			c0.73-0.043,1.334,0.308,1.556,0.913c0.237,0.645,0.074,1.232-0.448,1.642c-0.685,0.538-1.429,1.001-2.146,1.5
			c-0.3,0.209-0.593,0.426-0.889,0.64C174.024,241.556,174.037,241.64,174.051,241.724z"/>
		<path fill="#713F3E" d="M173.338,317.053c0,0.869-0.036,1.703,0.005,2.532c0.522,10.573,2.102,20.987,4.623,31.268
			c1.075,4.384,2.035,8.798,2.945,13.22c0.559,2.719,0.804,5.491,0.581,8.272c-0.081,1.014-0.249,2.043-0.541,3.015
			c-0.989,3.289-3.341,5.124-6.833,5.437c-4.928,0.443-8.882-2.272-10.335-7.101c-0.756-2.514-0.808-5.083-0.589-7.674
			c0.504-5.976,1.173-11.944,1.449-17.93c0.294-6.371,0.198-12.759,0.298-19.139c0.068-4.367,0.171-8.734,0.283-13.1
			c0.014-0.536-0.073-0.914-0.543-1.257c-2.892-2.112-4.907-4.963-6.502-8.101c-0.943-1.854-1.781-3.786-2.429-5.761
			c-1.408-4.289-2.767-8.601-3.609-13.047c-0.943-4.979-1.279-10.01-1.193-15.075c0.091-5.362,0.474-10.698,1.423-15.979
			c0.633-3.524,1.646-6.943,3.238-10.167c0.76-1.539,1.688-2.97,2.901-4.202c0.946-0.961,2.045-1.693,3.279-2.224
			c2.888-1.245,5.56-0.835,8.018,1.083c1.428,1.114,2.505,2.534,3.445,4.064c1.926,3.138,3.135,6.581,4.101,10.097
			c1.831,6.66,3.645,13.333,4.518,20.204c0.507,3.991,0.903,7.999,1.213,12.01c0.207,2.684,0.249,5.388,0.233,8.082
			c-0.032,5.274-1.319,10.294-3.315,15.144c-0.345,0.838-0.811,1.632-1.286,2.407c-1.092,1.784-2.622,3.029-4.648,3.632
			C173.82,316.838,173.584,316.954,173.338,317.053z"/>
	</g>
	<g>
		<g>
			<path fill="#B3AEA8" d="M287.503,266.434c1.085-0.883,2.079-1.692,3.187-2.593c2.257,2.44,4.237,5.059,6.565,7.583
				c-0.924,0.943-1.837,1.875-2.842,2.901C291.85,271.934,289.666,269.303,287.503,266.434z"/>
			<path fill="#B3AEA8" d="M249.413,311.2c-1.008,0.8-2.034,1.615-3.118,2.475c-2.493-2.185-4.262-4.851-6.459-7.298
				c1.123-0.944,2.16-1.815,3.18-2.672C244.149,304.359,248.668,309.649,249.413,311.2z"/>
			<path fill="#B3AEA8" d="M289.916,278.425c-2.517-2.66-5.03-5.108-7.144-8.07c0.984-0.819,1.903-1.584,3.062-2.55
				c0.215,0.34,0.366,0.651,0.583,0.907c1.224,1.443,2.457,2.878,3.7,4.305c0.816,0.936,1.654,1.854,2.589,2.899
				C291.906,276.743,290.96,277.516,289.916,278.425z"/>
			<path fill="#B3AEA8" d="M247.651,299.867c2.092,2.693,4.063,5.23,6.122,7.881c-1.031,0.819-1.941,1.541-2.894,2.297
				c-2.653-2.044-4.479-4.741-6.524-7.456C245.419,301.711,246.453,300.857,247.651,299.867z"/>
			<path fill="#B3AEA8" d="M257.957,304.431c-1.06,0.842-1.996,1.587-2.962,2.354c-2.45-2.324-4.471-4.86-6.404-7.663
				c1.054-0.871,2.058-1.701,3.156-2.609C253.831,299.169,255.837,301.727,257.957,304.431z"/>
			<path fill="#B3AEA8" d="M268.186,282.711c1.251,1.502,2.39,2.873,3.533,4.24c0.682,0.816,1.373,1.624,2.055,2.44
				c0.966,1.155,0.926,1.59-0.22,2.513c-1.081,0.871-1.714,0.935-2.663-0.057c-1.887-1.975-3.684-4.036-5.512-6.067
				c-0.094-0.105-0.135-0.257-0.243-0.47C266.123,284.469,267.096,283.64,268.186,282.711z"/>
			<path fill="#B3AEA8" d="M262.124,301.045c-0.972,0.79-1.82,1.479-2.75,2.235c-2.447-2.3-4.651-4.722-6.599-7.535
				c0.938-0.953,1.986-1.73,3.064-2.61C258.082,295.665,260.079,298.268,262.124,301.045z"/>
			<path fill="#B3AEA8" d="M264.201,286.115c2.261,2.661,4.454,5.242,6.719,7.908c-0.79,0.634-1.479,1.22-2.209,1.749
				c-0.166,0.12-0.498,0.107-0.716,0.036c-0.24-0.078-0.452-0.273-0.649-0.448c-2.152-1.924-4.171-3.975-5.899-6.296
				c-0.066-0.088-0.102-0.197-0.222-0.436C262.172,287.828,263.139,287.012,264.201,286.115z"/>
			<path fill="#B3AEA8" d="M266.22,297.768c-0.567,0.461-1.054,0.875-1.56,1.265c-0.724,0.558-0.905,0.593-1.566-0.024
				c-1.137-1.061-2.265-2.14-3.308-3.292c-0.987-1.09-1.859-2.284-2.848-3.515c1.077-0.894,2.059-1.71,3.103-2.578
				C262.322,292.212,264.495,294.765,266.22,297.768z"/>
			<path fill="#B3AEA8" d="M288.202,279.938c-0.828,0.69-1.604,1.338-2.48,2.068c-2.578-2.557-5.08-5.024-7.446-7.85
				c0.937-0.798,1.819-1.548,2.687-2.287C281.743,272.365,286.919,278.133,288.202,279.938z"/>
			<path fill="#B3AEA8" d="M276.696,275.496c2.571,2.517,4.479,5.502,7.018,8.161c-0.793,0.651-1.535,1.259-2.381,1.953
				c-2.503-2.535-5.187-4.754-7.429-7.632C274.718,277.043,275.727,276.351,276.696,275.496z"/>
			<path fill="#B3AEA8" d="M269.733,281.404c0.994-0.844,1.878-1.594,2.853-2.422c0.323,0.335,0.621,0.608,0.879,0.915
				c1.704,2.027,3.402,4.059,5.096,6.094c0.493,0.592,0.62,1.121,0.283,1.54c-0.452,0.562-0.975,1.151-1.797,0.948
				c-0.494-0.122-1.012-0.366-1.391-0.7C273.522,285.9,271.69,283.736,269.733,281.404z"/>
		</g>
		<path fill="#697279" d="M214.137,365.32c-1.435,0.055-2.609-0.501-3.659-1.265c-2.789-2.029-4.724-4.71-5.717-8.016
			c-0.702-2.337-0.082-4.51,1.124-6.536c1.219-2.047,2.919-3.691,4.643-5.296c5.466-5.089,11.36-9.608,17.813-13.395
			c2.092-1.228,4.119-2.585,6.082-4.012c2.698-1.962,4.954-4.362,6.614-7.288c0.487-0.859,1.028-1.686,1.524-2.54
			c1.908-3.286,4.344-6.123,7.216-8.602c8.339-7.198,16.683-14.389,25-21.612c4.675-4.06,9.292-8.185,13.951-12.262
			c1.257-1.1,2.549-2.164,3.87-3.186c0.777-0.601,1.604-1.166,2.479-1.607c2.567-1.293,5.197-0.52,6.711,1.932
			c1.211,1.963,1.604,4.073,1.039,6.337c-0.637,2.551-1.814,4.823-3.5,6.833c-2.207,2.631-4.755,4.912-7.405,7.076
			c-5.678,4.637-11.408,9.211-17.075,13.86c-5.991,4.914-11.923,9.901-17.903,14.828c-3.875,3.192-7.202,6.862-9.845,11.132
			c-2.831,4.575-6.278,8.655-9.845,12.665c-5.282,5.937-10.858,11.582-16.553,17.113c-1.03,1.001-2.187,1.885-3.353,2.728
			C216.389,364.9,215.313,365.403,214.137,365.32z"/>
	</g>
</g>
</svg>
